<svg width="21" height="21" viewBox="0 0 21 21" fill="none" xmlns="http://www.w3.org/2000/svg">
<circle cx="10.5" cy="10.5" r="10.5" fill="#D9D9D9"/>
<path d="M10.0755 17.18C9.28352 17.18 8.59352 17.03 8.00552 16.73C7.42952 16.43 6.97952 15.998 6.65552 15.434C6.34352 14.858 6.18752 14.18 6.18752 13.4V7.46C6.18752 6.668 6.34352 5.99 6.65552 5.426C6.97952 4.862 7.42952 4.43 8.00552 4.13C8.59352 3.83 9.28352 3.68 10.0755 3.68C10.8675 3.68 11.5515 3.836 12.1275 4.148C12.7035 4.448 13.1475 4.88 13.4595 5.444C13.7715 6.008 13.9275 6.68 13.9275 7.46H12.3075C12.3075 6.716 12.1095 6.146 11.7135 5.75C11.3295 5.342 10.7835 5.138 10.0755 5.138C9.36752 5.138 8.80952 5.336 8.40152 5.732C8.00552 6.128 7.80752 6.698 7.80752 7.442V13.4C7.80752 14.144 8.00552 14.72 8.40152 15.128C8.80952 15.524 9.36752 15.722 10.0755 15.722C10.7835 15.722 11.3295 15.524 11.7135 15.128C12.1095 14.72 12.3075 14.144 12.3075 13.4H13.9275C13.9275 14.168 13.7715 14.84 13.4595 15.416C13.1475 15.98 12.7035 16.418 12.1275 16.73C11.5515 17.03 10.8675 17.18 10.0755 17.18Z" fill="black"/>
</svg>
